<svg width="90" height="79" viewBox="0 0 90 79" fill="none" xmlns="http://www.w3.org/2000/svg">
<rect width="90" height="79" fill="#D9D9D9"/>
<rect width="90" height="79" fill="#DA7756"/>
<path d="M63.1075 45.7065C62.8294 47.9876 61.9796 49.9324 60.5582 51.5409C59.1368 53.1495 57.2055 54.3778 54.7643 55.2259C52.3231 56.074 49.4185 56.4981 46.0503 56.4981C43.2383 56.4981 40.6581 56.191 38.3097 55.5768C35.9921 54.9627 33.9836 54.0414 32.284 52.8131C30.6154 51.5848 29.3176 50.064 28.3905 48.2508C27.4635 46.4083 27 44.2588 27 41.8022C27 39.3455 27.4635 37.196 28.3905 35.3535C29.3176 33.5111 30.6154 31.9757 32.284 30.7473C33.9836 29.4898 35.9921 28.5539 38.3097 27.9398C40.6581 27.2964 43.2383 26.9747 46.0503 26.9747C49.4185 26.9747 52.3231 27.4134 54.7643 28.2907C57.2364 29.1681 59.1831 30.4256 60.6045 32.0634C62.026 33.6719 62.8603 35.6314 63.1075 37.9418H56.9892C56.5874 36.7134 55.9076 35.6606 54.9497 34.7832C54.0227 33.8766 52.8176 33.1894 51.3343 32.7214C49.8511 32.2535 48.0897 32.0195 46.0503 32.0195C43.5164 32.0195 41.2916 32.3997 39.3757 33.1601C37.4599 33.8912 35.9766 34.988 34.926 36.4502C33.8754 37.8833 33.3501 39.6672 33.3501 41.8022C33.3501 43.9079 33.8754 45.6772 34.926 47.1102C35.9766 48.5433 37.4599 49.64 39.3757 50.4004C41.2916 51.1315 43.5164 51.4971 46.0503 51.4971C48.0897 51.4971 49.8356 51.2631 51.288 50.7952C52.7712 50.3273 53.9763 49.6546 54.9034 48.7772C55.8613 47.8999 56.5565 46.8763 56.9892 45.7065H63.1075Z" fill="#FCFCFC"/>
</svg>
