<svg width="32" height="30" viewBox="0 0 32 30" fill="none" xmlns="http://www.w3.org/2000/svg">
<rect width="32" height="30" rx="8" fill="#DA7756"/>
<path d="M25.3508 17.408C25.2068 18.656 24.7668 19.72 24.0308 20.6C23.2948 21.48 22.2948 22.152 21.0308 22.616C19.7668 23.08 18.2628 23.312 16.5188 23.312C15.0628 23.312 13.7268 23.144 12.5108 22.808C11.3108 22.472 10.2708 21.968 9.39081 21.296C8.52681 20.624 7.85481 19.792 7.37481 18.8C6.89481 17.792 6.65481 16.616 6.65481 15.272C6.65481 13.928 6.89481 12.752 7.37481 11.744C7.85481 10.736 8.52681 9.896 9.39081 9.224C10.2708 8.536 11.3108 8.024 12.5108 7.688C13.7268 7.336 15.0628 7.16 16.5188 7.16C18.2628 7.16 19.7668 7.4 21.0308 7.88C22.3108 8.36 23.3188 9.048 24.0548 9.944C24.7908 10.824 25.2228 11.896 25.3508 13.16H22.1828C21.9748 12.488 21.6228 11.912 21.1268 11.432C20.6468 10.936 20.0228 10.56 19.2548 10.304C18.4868 10.048 17.5748 9.92 16.5188 9.92C15.2068 9.92 14.0548 10.128 13.0628 10.544C12.0708 10.944 11.3028 11.544 10.7588 12.344C10.2148 13.128 9.94281 14.104 9.94281 15.272C9.94281 16.424 10.2148 17.392 10.7588 18.176C11.3028 18.96 12.0708 19.56 13.0628 19.976C14.0548 20.376 15.2068 20.576 16.5188 20.576C17.5748 20.576 18.4788 20.448 19.2308 20.192C19.9988 19.936 20.6228 19.568 21.1028 19.088C21.5988 18.608 21.9588 18.048 22.1828 17.408H25.3508Z" fill="#FCFCFC"/>
</svg>
