<svg width="236" height="57" viewBox="0 0 236 57" fill="none" xmlns="http://www.w3.org/2000/svg">
<path d="M50.1239 0H16.708C7.48041 0 0 6.80527 0 15.2V41.8C0 50.1947 7.48041 57 16.708 57H50.1239C59.3514 57 66.8319 50.1947 66.8319 41.8V15.2C66.8319 6.80527 59.3514 0 50.1239 0Z" fill="#DA7756"/>
<path d="M52.945 33.0752C52.6443 35.4464 51.7254 37.468 50.1882 39.14C48.6511 40.812 46.5626 42.0888 43.9227 42.9704C41.2829 43.852 38.1418 44.2928 34.4994 44.2928C31.4586 44.2928 28.6684 43.9736 26.1288 43.3352C23.6226 42.6968 21.4505 41.7392 19.6127 40.4624C17.8082 39.1856 16.4047 37.6048 15.4023 35.72C14.3998 33.8048 13.8985 31.5704 13.8985 29.0168C13.8985 26.4632 14.3998 24.2288 15.4023 22.3136C16.4047 20.3984 17.8082 18.8024 19.6127 17.5256C21.4505 16.2184 23.6226 15.2456 26.1288 14.6072C28.6684 13.9384 31.4586 13.604 34.4994 13.604C38.1418 13.604 41.2829 14.06 43.9227 14.972C46.596 15.884 48.7012 17.1912 50.2383 18.8936C51.7755 20.5656 52.6777 22.6024 52.945 25.004H46.3287C45.8943 23.7272 45.1591 22.6328 44.1232 21.7208C43.1208 20.7784 41.8175 20.064 40.2136 19.5776C38.6096 19.0912 36.7049 18.848 34.4994 18.848C31.7593 18.848 29.3534 19.2432 27.2816 20.0336C25.2098 20.7936 23.6058 21.9336 22.4697 23.4536C21.3336 24.9432 20.7655 26.7976 20.7655 29.0168C20.7655 31.2056 21.3336 33.0448 22.4697 34.5344C23.6058 36.024 25.2098 37.164 27.2816 37.9544C29.3534 38.7144 31.7593 39.0944 34.4994 39.0944C36.7049 39.0944 38.5929 38.8512 40.1634 38.3648C41.7674 37.8784 43.0706 37.1792 44.0731 36.2672C45.109 35.3552 45.8609 34.2912 46.3287 33.0752H52.945Z" fill="#FCFCFC"/>
<path d="M84.1795 37.532C82.0074 37.5308 80.2885 36.9824 79.0226 35.8872C77.7567 34.7767 77.1274 33.1955 77.1345 31.1434L77.148 27.3131C77.155 25.261 77.7956 23.6882 79.0691 22.5946C80.3428 21.4858 82.0656 20.932 84.2376 20.9333C86.3929 20.9348 88.0534 21.4754 89.2191 22.5553C90.4017 23.6202 90.9896 25.0873 90.9831 26.957L90.9826 27.0938L87.7246 27.0916L87.7254 26.8636C87.7289 25.9213 87.4392 25.1458 86.8564 24.5375C86.2905 23.9291 85.4145 23.6246 84.2283 23.6239C83.0586 23.6231 82.1387 23.9493 81.468 24.6025C80.7974 25.2556 80.4601 26.1446 80.4563 27.2696L80.4425 31.1911C80.4385 32.3009 80.7696 33.1902 81.4355 33.8596C82.1016 34.5136 83.0193 34.8409 84.189 34.8416C85.3751 34.8424 86.2534 34.5389 86.8235 33.9314C87.4104 33.3084 87.7056 32.5334 87.7088 31.6063L87.7103 31.1958L90.9683 31.1978L90.9673 31.517C90.9605 33.3867 90.3623 34.8607 89.1724 35.9391C87.9989 37.0025 86.3348 37.5335 84.1795 37.532ZM100.458 37.5424C98.2529 37.541 96.5006 36.9927 95.2012 35.8974C93.9018 34.787 93.2557 33.2058 93.2629 31.1537L93.2765 27.3232C93.2835 25.2711 93.9406 23.6984 95.2477 22.6048C96.5548 21.4959 98.311 20.9423 100.516 20.9437C102.722 20.9451 104.474 21.501 105.773 22.6115C107.073 23.7067 107.719 25.2803 107.712 27.3324L107.698 31.1627C107.691 33.2148 107.034 34.7953 105.727 35.9041C104.42 36.9976 102.664 37.5438 100.458 37.5424ZM100.468 34.8518C101.704 34.8527 102.666 34.5265 103.353 33.8733C104.041 33.2201 104.386 32.3464 104.39 31.2519L104.404 27.2391C104.408 26.1445 104.068 25.2704 103.386 24.6164C102.703 23.9622 101.743 23.6349 100.507 23.6341C99.2874 23.6334 98.3254 23.9596 97.6216 24.6126C96.9342 25.2658 96.5886 26.1397 96.5848 27.234L96.5707 31.247C96.567 32.3414 96.9064 33.2157 97.589 33.8697C98.2886 34.5237 99.248 34.8512 100.468 34.8518ZM110.579 37.2295L110.635 21.2693L116.925 21.2731L120.36 35.1837L120.811 35.184L120.86 21.2757L124.118 21.2777L124.062 37.2381L117.771 37.234L114.337 23.3236L113.885 23.3233L113.837 37.2316L110.579 37.2295ZM133.457 37.5633C132.104 37.5623 130.91 37.3412 129.875 36.8997C128.841 36.4583 128.033 35.8268 127.451 35.0058C126.869 34.1846 126.58 33.1964 126.584 32.0412L126.586 31.4027L129.844 31.4049L129.842 32.0432C129.839 33.0009 130.162 33.7231 130.812 34.2099C131.462 34.6815 132.347 34.9177 133.466 34.9183C134.602 34.9191 135.447 34.7144 135.999 34.3043C136.569 33.8943 136.855 33.3701 136.857 32.7316C136.859 32.2908 136.718 31.9335 136.435 31.6598C136.168 31.3859 135.768 31.1652 135.234 30.9978C134.717 30.815 134.082 30.6474 133.331 30.495L132.755 30.3806C131.553 30.1366 130.518 29.832 129.651 29.4666C128.8 29.0862 128.142 28.5917 127.676 27.9833C127.227 27.3751 127.004 26.5845 127.008 25.6117C127.011 24.6388 127.265 23.8106 127.768 23.127C128.289 22.4281 129.009 21.8964 129.929 21.5322C130.866 21.1528 131.961 20.9636 133.214 20.9644C134.467 20.9652 135.578 21.1634 136.545 21.5592C137.53 21.9399 138.296 22.5179 138.845 23.2936C139.41 24.0538 139.691 25.0116 139.687 26.167L139.684 26.8509L136.426 26.8489L136.429 26.1648C136.431 25.5569 136.299 25.0703 136.033 24.7054C135.784 24.3252 135.417 24.0514 134.933 23.8838C134.449 23.7011 133.873 23.6096 133.205 23.6091C132.202 23.6084 131.458 23.7828 130.973 24.1322C130.504 24.4663 130.268 24.9298 130.266 25.5225C130.265 25.9178 130.372 26.2523 130.588 26.5259C130.821 26.7997 131.163 27.028 131.613 27.2105C132.064 27.3933 132.64 27.5533 133.341 27.6906L133.917 27.8048C135.169 28.0489 136.254 28.3612 137.172 28.7417C138.106 29.1224 138.831 29.6244 139.347 30.248C139.863 30.8715 140.119 31.6697 140.115 32.6424C140.112 33.6153 139.833 34.4739 139.279 35.2184C138.742 35.9478 137.972 36.5249 136.967 36.9499C135.98 37.3596 134.81 37.5641 133.457 37.5633ZM146.063 37.2518L146.11 24.0276L140.997 24.0244L141.007 21.2884L154.54 21.2969L154.53 24.0331L149.418 24.0299L149.372 37.2541L146.063 37.2518ZM156.737 37.2587L156.793 21.2984L164.412 21.3033C165.514 21.304 166.474 21.4793 167.292 21.8293C168.109 22.1796 168.742 22.6739 169.191 23.3127C169.64 23.9513 169.863 24.7039 169.86 25.5704L169.859 25.8439C169.856 26.8016 169.602 27.5766 169.099 28.169C168.596 28.7617 167.976 29.1945 167.24 29.4675L167.238 29.878C167.907 29.9087 168.424 30.122 168.79 30.5173C169.156 30.8977 169.338 31.407 169.336 32.0453L169.318 37.2666L166.01 37.2645L166.026 32.4765C166.028 32.1116 165.92 31.8151 165.704 31.5871C165.504 31.3588 165.162 31.2448 164.677 31.2443L160.066 31.2415L160.045 37.2607L156.737 37.2587ZM160.076 28.5053L164.035 28.5079C164.821 28.5084 165.431 28.3188 165.867 27.9391C166.319 27.5442 166.547 27.0275 166.549 26.3891L166.55 26.161C166.552 25.5225 166.337 25.0133 165.903 24.6331C165.47 24.2374 164.853 24.0396 164.051 24.0391L160.091 24.0365L160.076 28.5053ZM171.369 37.2679L176.036 21.3105L181.8 21.3143L186.355 37.2775L182.947 37.2752L182.007 33.7633L175.742 33.7595L174.777 37.27L171.369 37.2679ZM176.528 30.9783L181.24 30.9811L179.137 23.205L178.686 23.2047L176.528 30.9783ZM194.544 37.6018C193.191 37.6008 191.997 37.3798 190.963 36.9383C189.928 36.4968 189.12 35.8656 188.538 35.0444C187.956 34.2232 187.667 33.2349 187.671 32.0797L187.674 31.4412L190.932 31.4434L190.93 32.0817C190.926 33.0394 191.249 33.7616 191.899 34.2484C192.549 34.7201 193.434 34.9562 194.553 34.9569C195.689 34.9577 196.534 34.7529 197.087 34.3428C197.656 33.9329 197.942 33.4087 197.944 32.7702C197.946 32.3293 197.805 31.972 197.522 31.6983C197.256 31.4246 196.855 31.2039 196.321 31.0364C195.804 30.8535 195.17 30.6861 194.418 30.5335L193.842 30.4191C192.64 30.1752 191.606 29.8705 190.738 29.5051C189.887 29.1247 189.229 28.6302 188.763 28.022C188.314 27.4136 188.091 26.623 188.095 25.6503C188.098 24.6773 188.352 23.8491 188.856 23.1655C189.376 22.4666 190.096 21.935 191.016 21.5708C191.953 21.1913 193.048 21.0021 194.302 21.0029C195.555 21.0037 196.665 21.2019 197.632 21.5977C198.617 21.9785 199.383 22.5565 199.932 23.3321C200.498 24.0924 200.778 25.0501 200.774 26.2055L200.772 26.8894L197.514 26.8874L197.516 26.2033C197.518 25.5954 197.386 25.1088 197.12 24.7439C196.871 24.3637 196.504 24.09 196.02 23.9225C195.537 23.7398 194.96 23.6482 194.292 23.6477C193.29 23.6472 192.546 23.8213 192.06 24.1707C191.591 24.5048 191.355 24.9683 191.353 25.561C191.352 25.9563 191.459 26.2908 191.675 26.5645C191.908 26.8382 192.25 27.0665 192.701 27.2493C193.151 27.4318 193.727 27.5919 194.428 27.7291L195.004 27.8434C196.256 28.0874 197.341 28.3998 198.259 28.7803C199.193 29.1609 199.918 29.6629 200.434 30.2866C200.95 30.9101 201.206 31.7082 201.203 32.6811C201.199 33.6539 200.921 34.5126 200.367 35.257C199.829 35.9863 199.059 36.5634 198.055 36.9884C197.068 37.3982 195.897 37.6026 194.544 37.6018ZM207.151 37.2906L207.197 24.0663L202.084 24.0631L202.094 21.3269L215.626 21.3355L215.618 24.0716L210.505 24.0684L210.458 37.2927L207.151 37.2906ZM223.93 37.6203C221.724 37.6189 219.973 37.0705 218.672 35.9753C217.373 34.8648 216.728 33.2837 216.734 31.2316L216.748 27.4012C216.755 25.3492 217.413 23.7763 218.719 22.6827C220.026 21.574 221.784 21.0202 223.987 21.0216C226.193 21.023 227.946 21.5789 229.246 22.6893C230.544 23.7846 231.19 25.3582 231.183 27.4102L231.171 31.2408C231.163 33.2929 230.507 34.8731 229.199 35.982C227.891 37.0756 226.136 37.6216 223.93 37.6203ZM223.938 34.9299C225.175 34.9307 226.138 34.6045 226.825 33.9513C227.512 33.2981 227.857 32.4243 227.862 31.3299L227.876 27.317C227.88 26.2226 227.541 25.3484 226.857 24.6943C226.174 24.0403 225.215 23.7128 223.979 23.7121C222.759 23.7113 221.796 24.0375 221.093 24.6907C220.406 25.3439 220.06 26.2176 220.056 27.3121L220.042 31.3249C220.039 32.4194 220.379 33.2936 221.06 33.9476C221.76 34.6017 222.721 34.929 223.938 34.9299Z" fill="black"/>
</svg>
