<svg width="113" height="30" viewBox="0 0 113 30" fill="none" xmlns="http://www.w3.org/2000/svg">
<path d="M41.0499 20.2273C40.01 20.2116 39.1905 19.9111 38.5913 19.326C37.9922 18.7328 37.7009 17.8963 37.7172 16.8164L37.7478 14.8007C37.7641 13.7208 38.0807 12.8975 38.6973 12.3308C39.3141 11.7561 40.1424 11.4766 41.1823 11.4923C42.2142 11.508 43.0058 11.804 43.5571 12.3804C44.1166 12.949 44.3888 13.7252 44.3739 14.7091L44.3728 14.7811L42.813 14.7574L42.8148 14.6374C42.8224 14.1415 42.6886 13.7314 42.4134 13.4072C42.1463 13.0831 41.7288 12.9168 41.1609 12.9082C40.6009 12.8997 40.1584 13.065 39.8332 13.4041C39.508 13.7432 39.3409 14.2087 39.332 14.8007L39.3007 16.8644C39.2918 17.4484 39.4447 17.9187 39.7593 18.2756C40.0741 18.6244 40.5114 18.803 41.0714 18.8115C41.6393 18.8201 42.0617 18.6665 42.3385 18.3507C42.6234 18.0269 42.7696 17.6211 42.777 17.1332L42.7803 16.9172L44.3401 16.9408L44.3376 17.1088C44.3226 18.0927 44.0269 18.8643 43.4504 19.4236C42.8819 19.9751 42.0818 20.243 41.0499 20.2273ZM48.8437 20.3455C47.7878 20.3295 46.9523 20.0288 46.3371 19.4434C45.722 18.85 45.4226 18.0134 45.439 16.9335L45.4696 14.9177C45.4859 13.8378 45.8104 13.0147 46.4431 12.4482C47.0759 11.8737 47.9202 11.5945 48.9761 11.6105C50.032 11.6265 50.8674 11.9312 51.4825 12.5246C52.0977 13.11 52.3971 13.9426 52.3808 15.0225L52.3502 17.0382C52.3338 18.1181 52.0093 18.9453 51.3765 19.5198C50.7438 20.0862 49.8996 20.3615 48.8437 20.3455ZM48.8651 18.9296C49.4571 18.9386 49.9196 18.7736 50.2528 18.4346C50.586 18.0956 50.7569 17.6382 50.7657 17.0622L50.7977 14.9505C50.8064 14.3745 50.6494 13.9121 50.3266 13.5632C50.0039 13.2142 49.5465 13.0353 48.9546 13.0263C48.3707 13.0175 47.9081 13.1825 47.567 13.5213C47.2338 13.8603 47.0628 14.3178 47.0541 14.8937L47.0221 17.0055C47.0134 17.5814 47.1704 18.0439 47.4931 18.3928C47.8239 18.7418 48.2812 18.9208 48.8651 18.9296ZM53.691 20.2509L53.8184 11.8519L56.83 11.8975L58.3869 19.242L58.6028 19.2453L58.7138 11.9261L60.2736 11.9497L60.1463 20.3488L57.1346 20.3031L55.5778 12.9587L55.3618 12.9554L55.2509 20.2746L53.691 20.2509ZM64.6423 20.585C63.9944 20.5751 63.4242 20.4505 62.9318 20.211C62.4393 19.9715 62.0564 19.6336 61.783 19.1975C61.5096 18.7613 61.3775 18.2392 61.3867 17.6313L61.3918 17.2953L62.9516 17.319L62.9465 17.6549C62.9389 18.1589 63.0891 18.5412 63.3972 18.8019C63.7054 19.0546 64.1275 19.185 64.6634 19.1931C65.2073 19.2014 65.6129 19.0995 65.8802 18.8875C66.1554 18.6757 66.2956 18.4018 66.3007 18.0658C66.3042 17.8338 66.239 17.6448 66.1052 17.4988C65.9794 17.3528 65.7892 17.2339 65.5346 17.1421C65.2881 17.0423 64.9854 16.9497 64.6267 16.8643L64.3516 16.8001C63.7776 16.6634 63.2841 16.4959 62.8711 16.2976C62.4662 16.0915 62.1541 15.8267 61.935 15.5033C61.7239 15.1801 61.6222 14.7625 61.63 14.2506C61.6377 13.7386 61.7643 13.3045 62.0097 12.9482C62.2633 12.584 62.6115 12.3092 63.0544 12.1239C63.5053 11.9307 64.0308 11.8387 64.6307 11.8478C65.2306 11.8569 65.761 11.9689 66.2218 12.1839C66.6907 12.3911 67.0541 12.7006 67.3119 13.1126C67.5778 13.5166 67.7061 14.0226 67.6969 14.6306L67.6914 14.9905L66.1316 14.9669L66.1371 14.6069C66.1419 14.287 66.0818 14.03 65.9567 13.8361C65.8398 13.6343 65.666 13.4877 65.4353 13.3961C65.2048 13.2966 64.9296 13.2445 64.6096 13.2396C64.1297 13.2323 63.7723 13.3189 63.5376 13.4994C63.3109 13.672 63.1952 13.9143 63.1905 14.2262C63.1874 14.4342 63.2367 14.611 63.3385 14.7565C63.4483 14.9022 63.6105 15.0247 63.825 15.1239C64.0395 15.2232 64.3142 15.3114 64.6491 15.3885L64.9241 15.4526C65.5221 15.5897 66.0396 15.7616 66.4765 15.9682C66.9214 16.175 67.2654 16.4442 67.5084 16.776C67.7514 17.1077 67.869 17.5295 67.8612 18.0414C67.8535 18.5534 67.7146 19.0033 67.4447 19.3913C67.1829 19.7714 66.8104 20.0698 66.327 20.2865C65.8518 20.4953 65.2902 20.5948 64.6423 20.585ZM70.68 20.5084L70.7854 13.5492L68.3377 13.5121L68.3596 12.0723L74.8388 12.1705L74.817 13.6104L72.3693 13.5733L72.2638 20.5325L70.68 20.5084ZM75.7901 20.5859L75.9174 12.1869L79.565 12.2422C80.0929 12.2502 80.5514 12.3491 80.9406 12.539C81.3298 12.729 81.6298 12.9935 81.8407 13.3328C82.0516 13.672 82.1536 14.0696 82.1466 14.5256L82.1445 14.6695C82.1368 15.1735 82.0107 15.5796 81.766 15.8879C81.5213 16.1963 81.2218 16.4198 80.8677 16.5584L80.8644 16.7744C81.1841 16.7952 81.4304 16.911 81.6032 17.1216C81.7762 17.3243 81.8601 17.5936 81.855 17.9295L81.8134 20.6772L80.2296 20.6532L80.2677 18.1335C80.2707 17.9415 80.221 17.7847 80.1189 17.6632C80.0247 17.5417 79.8616 17.4793 79.6296 17.4757L77.4219 17.4423L77.3739 20.6099L75.7901 20.5859ZM77.4437 16.0024L79.3395 16.0312C79.7155 16.0369 80.0089 15.9413 80.2199 15.7445C80.4391 15.5398 80.5512 15.2695 80.5563 14.9335L80.5581 14.8135C80.5632 14.4775 80.4633 14.208 80.2583 14.0049C80.0535 13.7937 79.7591 13.6853 79.3751 13.6795L77.4794 13.6507L77.4437 16.0024ZM82.7953 20.6921L85.1303 12.3265L87.89 12.3684L89.9705 20.8009L88.3387 20.7761L87.9107 18.9214L84.9111 18.876L84.4271 20.7168L82.7953 20.6921ZM85.3052 17.4178L87.5609 17.4519L86.6031 13.345L86.3871 13.3417L85.3052 17.4178ZM93.8889 21.0283C93.241 21.0184 92.6708 20.8938 92.1784 20.6543C91.686 20.4148 91.3031 20.077 91.0296 19.6408C90.7562 19.2046 90.6241 18.6825 90.6333 18.0746L90.6384 17.7386L92.1982 17.7623L92.1932 18.0982C92.1855 18.6022 92.3357 18.9845 92.6438 19.2452C92.952 19.4979 93.3741 19.6283 93.91 19.6364C94.454 19.6447 94.8596 19.5428 95.1268 19.3308C95.402 19.119 95.5422 18.8451 95.5473 18.5091C95.5508 18.2771 95.4857 18.0881 95.3519 17.9421C95.2261 17.7962 95.0359 17.6773 94.7812 17.5854C94.5347 17.4856 94.2321 17.3931 93.8733 17.3076L93.5983 17.2434C93.0243 17.1067 92.5308 16.9392 92.1177 16.7409C91.7128 16.5348 91.4008 16.27 91.1816 15.9467C90.9705 15.6234 90.8688 15.2058 90.8766 14.6939C90.8844 14.1819 91.011 13.7478 91.2564 13.3915C91.5099 13.0273 91.8581 12.7525 92.301 12.5672C92.752 12.374 93.2774 12.282 93.8774 12.2911C94.4773 12.3002 95.0077 12.4122 95.4684 12.6272C95.9374 12.8344 96.3007 13.1439 96.5585 13.5559C96.8244 13.9599 96.9527 14.4659 96.9435 15.0739L96.9381 15.4338L95.3783 15.4102L95.3837 15.0502C95.3886 14.7303 95.3285 14.4733 95.2034 14.2794C95.0864 14.0776 94.9126 13.931 94.682 13.8395C94.4515 13.74 94.1762 13.6878 93.8563 13.6829C93.3763 13.6757 93.019 13.7622 92.7842 13.9427C92.5576 14.1153 92.4419 14.3576 92.4371 14.6695C92.434 14.8775 92.4833 15.0543 92.5851 15.1998C92.6949 15.3455 92.8571 15.468 93.0716 15.5673C93.2861 15.6665 93.5608 15.7547 93.8957 15.8318L94.1708 15.8959C94.7687 16.033 95.2862 16.2049 95.7231 16.4115C96.168 16.6183 96.512 16.8875 96.755 17.2193C96.998 17.551 97.1156 17.9728 97.1079 18.4848C97.1001 18.9967 96.9613 19.4467 96.6914 19.8346C96.4296 20.2147 96.057 20.5131 95.5737 20.7298C95.0984 20.9386 94.5369 21.0381 93.8889 21.0283ZM99.9266 20.9518L100.032 13.9926L97.5844 13.9555L97.6062 12.5156L104.085 12.6138L104.064 14.0537L101.616 14.0166L101.51 20.9758L99.9266 20.9518ZM107.958 21.2415C106.902 21.2255 106.067 20.9248 105.451 20.3394C104.836 19.746 104.537 18.9094 104.553 17.8295L104.584 15.8138C104.6 14.7339 104.925 13.9107 105.557 13.3442C106.19 12.7698 107.035 12.4905 108.09 12.5065C109.146 12.5225 109.982 12.8272 110.597 13.4206C111.212 14.006 111.511 14.8386 111.495 15.9185L111.465 17.9343C111.448 19.0142 111.124 19.8413 110.491 20.4158C109.858 20.9823 109.014 21.2575 107.958 21.2415ZM107.979 19.8257C108.571 19.8347 109.034 19.6697 109.367 19.3307C109.7 18.9917 109.871 18.5342 109.88 17.9583L109.912 15.8465C109.921 15.2706 109.764 14.8082 109.441 14.4592C109.118 14.1103 108.661 13.9313 108.069 13.9224C107.485 13.9135 107.022 14.0785 106.681 14.4174C106.348 14.7564 106.177 15.2138 106.168 15.7898L106.136 17.9015C106.128 18.4775 106.285 18.9399 106.607 19.2888C106.938 19.6379 107.396 19.8168 107.979 19.8257Z" fill="black"/>
<rect width="32" height="30" rx="8" fill="#DA7756"/>
<path d="M25.3508 17.408C25.2068 18.656 24.7668 19.72 24.0308 20.6C23.2948 21.48 22.2948 22.152 21.0308 22.616C19.7668 23.08 18.2628 23.312 16.5188 23.312C15.0628 23.312 13.7268 23.144 12.5108 22.808C11.3108 22.472 10.2708 21.968 9.39081 21.296C8.52681 20.624 7.85481 19.792 7.37481 18.8C6.89481 17.792 6.65481 16.616 6.65481 15.272C6.65481 13.928 6.89481 12.752 7.37481 11.744C7.85481 10.736 8.52681 9.896 9.39081 9.224C10.2708 8.536 11.3108 8.024 12.5108 7.688C13.7268 7.336 15.0628 7.16 16.5188 7.16C18.2628 7.16 19.7668 7.4 21.0308 7.88C22.3108 8.36 23.3188 9.048 24.0548 9.944C24.7908 10.824 25.2228 11.896 25.3508 13.16H22.1828C21.9748 12.488 21.6228 11.912 21.1268 11.432C20.6468 10.936 20.0228 10.56 19.2548 10.304C18.4868 10.048 17.5748 9.92 16.5188 9.92C15.2068 9.92 14.0548 10.128 13.0628 10.544C12.0708 10.944 11.3028 11.544 10.7588 12.344C10.2148 13.128 9.94281 14.104 9.94281 15.272C9.94281 16.424 10.2148 17.392 10.7588 18.176C11.3028 18.96 12.0708 19.56 13.0628 19.976C14.0548 20.376 15.2068 20.576 16.5188 20.576C17.5748 20.576 18.4788 20.448 19.2308 20.192C19.9988 19.936 20.6228 19.568 21.1028 19.088C21.5988 18.608 21.9588 18.048 22.1828 17.408H25.3508Z" fill="#FCFCFC"/>
</svg>
